<?xml version="1.0"?>
<svg width="1240" height="776" xmlns="http://www.w3.org/2000/svg" xmlns:svg="http://www.w3.org/2000/svg" preserveAspectRatio="xMidYMid meet">
 <g class="layer">
  <title>Layer 1</title>
  <g fill="#000000" id="svg_1" transform="translate(0 776) scale(0.1 -0.1)">
   <path d="m1225,7235c-332,-61 -554,-248 -646,-545c-34,-107 -34,-283 -1,-390c88,-284 304,-476 750,-663c263,-111 386,-263 342,-421c-51,-184 -288,-219 -573,-83c-51,24 -126,65 -167,90c-85,54 -125,60 -163,25c-27,-25 -203,-333 -213,-372c-15,-60 192,-207 392,-279c158,-57 261,-72 484,-72c237,1 298,13 457,90c201,98 352,267 420,470c25,72 27,94 27,225c0,137 -1,150 -31,233c-41,115 -83,183 -171,278c-129,138 -269,227 -529,338c-196,83 -274,126 -342,187c-68,61 -95,113 -95,185c-1,73 31,123 105,164c47,26 64,30 134,29c47,0 105,-7 140,-18c84,-25 225,-94 325,-160c47,-31 94,-56 105,-56c47,0 87,41 189,198c57,87 107,168 110,180c17,53 -2,81 -97,144c-156,102 -285,159 -462,204c-128,33 -365,42 -490,19z" fill="#ffffff" id="svg_2"/>
   <path d="m3795,7239c-287,-42 -561,-177 -766,-379c-207,-203 -344,-467 -394,-754c-19,-113 -19,-338 0,-447c34,-197 112,-394 217,-546c70,-102 228,-266 325,-335c147,-106 305,-179 487,-225c139,-35 396,-43 548,-18c246,40 480,151 656,310c55,50 62,61 62,93c-1,34 -14,52 -160,207c-87,93 -169,173 -181,177c-24,9 -51,-3 -144,-66c-122,-81 -276,-126 -437,-126c-127,0 -216,21 -328,76c-80,40 -109,62 -185,138c-109,109 -172,221 -206,362c-30,126 -23,323 15,439c42,129 98,219 195,315c152,150 267,200 477,208c111,4 144,1 215,-17c106,-27 204,-74 293,-140c38,-28 78,-51 89,-51c24,0 335,315 353,358c17,38 7,58 -60,116c-246,214 -536,318 -882,315c-71,-1 -156,-5 -189,-10z" fill="#ffffff" id="svg_3"/>
   <path d="m6305,7235c-135,-24 -254,-63 -380,-124c-329,-161 -576,-442 -690,-784c-49,-149 -67,-245 -72,-402c-10,-287 66,-562 220,-797c74,-114 260,-304 370,-377c159,-106 352,-183 541,-216c113,-19 347,-20 457,0c587,102 1022,537 1124,1124c20,112 19,333 -1,452c-48,282 -180,536 -384,739c-191,192 -418,315 -690,375c-104,23 -389,29 -495,10zm367,-610c298,-63 534,-299 594,-595c22,-109 15,-265 -16,-365c-79,-256 -287,-450 -550,-516c-70,-18 -104,-21 -205,-17c-208,9 -354,74 -506,228c-71,71 -94,103 -133,181c-65,133 -81,199 -80,344c0,140 17,212 74,328c156,312 494,482 822,412z" fill="#ffffff" id="svg_4"/>
   <path d="m8100,7220c-19,-19 -20,-33 -20,-254c0,-215 2,-236 19,-257l19,-24l286,-3l286,-3l0,-334l0,-335l-129,0c-163,0 -161,2 -161,-125c0,-127 -2,-125 161,-125l129,0l0,-1455c0,-1613 -4,-1512 64,-1540c49,-21 431,-21 480,-1c72,30 66,-102 66,1528l0,1468l129,0c163,0 161,-2 161,125c0,127 2,125 -161,125l-129,0l0,335l0,334l286,3l286,3l19,24c17,21 19,42 19,257c0,221 -1,235 -20,254c-20,20 -33,20 -895,20c-862,0 -875,0 -895,-20z" fill="#ffffff" id="svg_5"/>
   <path d="m10071,7214c-20,-25 -21,-39 -21,-245c0,-232 5,-259 47,-278c16,-7 119,-11 298,-11l275,0l0,-340l0,-340l-134,0c-169,0 -166,2 -166,-125c0,-127 -3,-125 166,-125l134,0l0,-1473c0,-1345 1,-1475 16,-1496c31,-44 68,-51 284,-51c213,0 246,6 285,50c20,22 20,35 18,1496l-3,1474l129,0c163,0 161,-2 161,125c0,127 2,125 -161,125l-129,0l0,340l0,340l281,0l281,0l29,30l30,30l-3,229c-3,209 -5,231 -22,250l-19,21l-878,0l-878,0l-20,-26z" fill="#ffffff" id="svg_6"/>
   <path d="m554,4255c-4,-8 -4,-22 0,-30c5,-13 418,-15 3663,-13l3658,3l3,28l3,27l-3661,0c-3245,0 -3661,-2 -3666,-15z" fill="#ffffff" id="svg_7"/>
   <path d="m1653,3988c-16,-20 -423,-899 -423,-913c0,-19 24,-25 98,-25c103,0 110,4 143,76l28,64l180,0l180,0l27,-60c15,-34 35,-65 45,-70c29,-16 175,-12 189,4c9,12 -25,94 -180,428c-106,227 -203,434 -216,461c-25,48 -51,61 -71,35zm70,-492c20,-47 40,-92 43,-100c5,-14 -6,-16 -85,-16c-50,0 -91,3 -91,8c0,13 83,192 89,192c3,0 23,-38 44,-84z" fill="#ffffff" id="svg_8"/>
   <path d="m4953,3988c-16,-20 -423,-898 -423,-913c0,-19 24,-25 98,-25c102,0 109,4 142,76l29,64l180,0l180,0l27,-60c15,-34 35,-65 45,-70c29,-16 175,-12 188,4c18,22 -405,930 -435,934c-11,2 -25,-3 -31,-10zm74,-504c23,-52 43,-97 43,-100c0,-2 -40,-4 -90,-4c-49,0 -90,3 -90,8c0,13 85,200 89,196c2,-2 24,-47 48,-100z" fill="#ffffff" id="svg_9"/>
   <path d="m6387,3993c-4,-3 -7,-214 -7,-469c0,-412 2,-463 16,-468c20,-8 158,-8 178,0c14,5 16,38 16,263l0,256l268,-268c223,-223 273,-268 293,-265l24,3l3,467l2,468l-22,5c-13,3 -59,5 -103,3l-80,-3l-3,-242c-1,-134 -5,-243 -8,-243c-3,0 -122,113 -265,250c-251,241 -287,269 -312,243z" fill="#ffffff" id="svg_10"/>
   <path d="m3093,3983c-18,-7 -19,-903 -1,-921c14,-14 504,-17 526,-4c9,6 12,33 10,98l-3,89l-167,3l-168,2l0,364c0,323 -2,365 -16,370c-19,7 -163,7 -181,-1z" fill="#ffffff" id="svg_11"/>
   <path d="m554,2795c-4,-8 -4,-22 0,-30c5,-13 418,-15 3663,-13l3658,3l3,28l3,27l-3661,0c-3245,0 -3661,-2 -3666,-15z" fill="#ffffff" id="svg_12"/>
   <path d="m6159,2419c-20,-20 -20,-22 -17,-993c2,-807 5,-976 17,-989c12,-15 40,-17 212,-17c193,0 198,1 213,22c14,20 16,89 16,553l0,530l568,-568l567,-567l46,0c86,0 79,-89 79,1006c0,861 -2,972 -16,992c-15,21 -20,22 -213,22c-172,0 -200,-2 -212,-17c-11,-13 -15,-114 -19,-526l-5,-509l-562,541l-562,541l-46,0c-32,0 -51,-6 -66,-21z" fill="#ffffff" id="svg_13"/>
   <path d="m567,2392c-15,-16 -17,-45 -17,-194c0,-157 2,-177 18,-191c16,-15 47,-17 230,-17l212,0l0,-230l0,-230l-83,0c-51,0 -88,-5 -95,-12c-16,-16 -16,-160 0,-176c7,-7 44,-12 95,-12l83,0l0,-438c0,-413 1,-440 18,-455c16,-15 46,-17 213,-17c138,0 198,3 207,12c9,9 12,124 12,455l0,443l83,0c51,0 88,5 95,12c7,7 12,42 12,88c0,46 -5,81 -12,88c-7,7 -44,12 -95,12l-83,0l0,230l0,230l213,0c168,0 217,3 233,14c18,13 19,28 19,194c0,137 -3,183 -14,195c-12,16 -72,17 -671,17c-624,0 -658,-1 -673,-18z" fill="#ffffff" id="svg_14"/>
   <path d="m2187,2392c-15,-17 -17,-77 -17,-651c0,-695 1,-713 62,-859c122,-294 421,-492 743,-492c331,0 633,196 757,492c57,135 58,146 58,850c0,575 -2,648 -16,662c-24,24 -405,24 -425,-1c-11,-13 -15,-133 -19,-652l-5,-636l-29,-59c-60,-122 -162,-188 -301,-194c-64,-3 -92,1 -137,18c-80,30 -157,102 -194,182l-29,63l-3,630c-2,563 -4,631 -19,647c-14,16 -37,18 -213,18c-178,0 -198,-2 -213,-18z" fill="#ffffff" id="svg_15"/>
   <path d="m4266,2394c-14,-14 -16,-117 -16,-983c0,-739 3,-970 12,-979c9,-9 69,-12 209,-12c193,0 198,1 213,22c14,19 16,73 16,386l0,363l98,-3l97,-3l185,-366c102,-202 191,-374 199,-383c12,-14 43,-16 230,-16c231,0 241,2 241,49c0,14 -87,185 -192,380c-106,195 -194,358 -196,362c-2,5 13,15 33,24c124,51 262,181 321,300c170,345 -36,770 -416,859c-99,24 -1011,23 -1034,0zm939,-413c153,-71 168,-286 26,-386l-43,-30l-244,-3l-244,-3l0,221l0,220l233,0c204,0 237,-3 272,-19z" fill="#ffffff" id="svg_16"/>
   <path d="m8366,2394c-14,-14 -16,-117 -16,-983c0,-739 3,-970 12,-979c9,-9 163,-12 629,-12l618,0l15,22c13,18 16,55 16,190c0,155 -2,170 -20,188c-19,19 -33,20 -420,20l-400,0l0,190l0,190l334,0c335,0 335,0 350,22c13,18 16,55 16,190c0,155 -2,170 -20,188c-19,19 -33,20 -350,20l-330,0l0,175l0,175l400,0c387,0 401,1 420,20c18,18 20,33 20,188c0,135 -3,172 -16,190l-15,22l-614,0c-544,0 -615,-2 -629,-16z" fill="#ffffff" id="svg_17"/>
   <path d="m10036,2394c-14,-14 -16,-117 -16,-983c0,-739 3,-970 12,-979c9,-9 69,-12 209,-12c193,0 198,1 213,22c14,19 16,73 16,386l0,363l98,-3l97,-3l185,-366c102,-202 191,-374 199,-383c12,-14 42,-16 230,-16c231,0 241,2 241,49c0,14 -87,185 -192,380c-106,195 -194,358 -196,362c-2,5 13,15 33,24c124,51 262,181 321,300c170,345 -36,770 -416,859c-99,24 -1011,23 -1034,0zm939,-413c153,-71 168,-286 26,-386l-43,-30l-244,-3l-244,-3l0,221l0,220l233,0c204,0 237,-3 272,-19z" fill="#ffffff" id="svg_18"/>
  </g>
 </g>
</svg>