<?xml version="1.0" standalone="no"?>
<!DOCTYPE svg PUBLIC "-//W3C//DTD SVG 20010904//EN"
 "http://www.w3.org/TR/2001/REC-SVG-20010904/DTD/svg10.dtd">
<svg version="1.0" xmlns="http://www.w3.org/2000/svg"
 width="1240.000000pt" height="776.000000pt" viewBox="0 0 1240.000000 776.000000"
 preserveAspectRatio="xMidYMid meet">

<g transform="translate(0.000000,776.000000) scale(0.100000,-0.100000)"
fill="#000000" stroke="none">
<path d="M1235 7235 c-332 -61 -554 -248 -646 -545 -34 -107 -34 -283 -1 -390
88 -284 304 -476 750 -663 263 -111 386 -263 342 -421 -51 -184 -288 -219
-573 -83 -51 24 -126 65 -167 90 -85 54 -125 60 -163 25 -27 -25 -203 -333
-213 -372 -15 -60 192 -207 392 -279 158 -57 261 -72 484 -72 237 1 298 13
457 90 201 98 352 267 420 470 25 72 27 94 27 225 0 137 -1 150 -31 233 -41
115 -83 183 -171 278 -129 138 -269 227 -529 338 -196 83 -274 126 -342 187
-68 61 -95 113 -95 185 -1 73 31 123 105 164 47 26 64 30 134 29 47 0 105 -7
140 -18 84 -25 225 -94 325 -160 47 -31 94 -56 105 -56 47 0 87 41 189 198 57
87 107 168 110 180 17 53 -2 81 -97 144 -156 102 -285 159 -462 204 -128 33
-365 42 -490 19z"/>
<path d="M3805 7239 c-287 -42 -561 -177 -766 -379 -207 -203 -344 -467 -394
-754 -19 -113 -19 -338 0 -447 34 -197 112 -394 217 -546 70 -102 228 -266
325 -335 147 -106 305 -179 487 -225 139 -35 396 -43 548 -18 246 40 480 151
656 310 55 50 62 61 62 93 -1 34 -14 52 -160 207 -87 93 -169 173 -181 177
-24 9 -51 -3 -144 -66 -122 -81 -276 -126 -437 -126 -127 0 -216 21 -328 76
-80 40 -109 62 -185 138 -109 109 -172 221 -206 362 -30 126 -23 323 15 439
42 129 98 219 195 315 152 150 267 200 477 208 111 4 144 1 215 -17 106 -27
204 -74 293 -140 38 -28 78 -51 89 -51 24 0 335 315 353 358 17 38 7 58 -60
116 -246 214 -536 318 -882 315 -71 -1 -156 -5 -189 -10z"/>
<path d="M6315 7235 c-135 -24 -254 -63 -380 -124 -329 -161 -576 -442 -690
-784 -49 -149 -67 -245 -72 -402 -10 -287 66 -562 220 -797 74 -114 260 -304
370 -377 159 -106 352 -183 541 -216 113 -19 347 -20 457 0 587 102 1022 537
1124 1124 20 112 19 333 -1 452 -48 282 -180 536 -384 739 -191 192 -418 315
-690 375 -104 23 -389 29 -495 10z m367 -610 c298 -63 534 -299 594 -595 22
-109 15 -265 -16 -365 -79 -256 -287 -450 -550 -516 -70 -18 -104 -21 -205
-17 -208 9 -354 74 -506 228 -71 71 -94 103 -133 181 -65 133 -81 199 -80 344
0 140 17 212 74 328 156 312 494 482 822 412z"/>
<path d="M8110 7220 c-19 -19 -20 -33 -20 -254 0 -215 2 -236 19 -257 l19 -24
286 -3 286 -3 0 -334 0 -335 -129 0 c-163 0 -161 2 -161 -125 0 -127 -2 -125
161 -125 l129 0 0 -1455 c0 -1613 -4 -1512 64 -1540 49 -21 431 -21 480 -1 72
30 66 -102 66 1528 l0 1468 129 0 c163 0 161 -2 161 125 0 127 2 125 -161 125
l-129 0 0 335 0 334 286 3 286 3 19 24 c17 21 19 42 19 257 0 221 -1 235 -20
254 -20 20 -33 20 -895 20 -862 0 -875 0 -895 -20z"/>
<path d="M10081 7214 c-20 -25 -21 -39 -21 -245 0 -232 5 -259 47 -278 16 -7
119 -11 298 -11 l275 0 0 -340 0 -340 -134 0 c-169 0 -166 2 -166 -125 0 -127
-3 -125 166 -125 l134 0 0 -1473 c0 -1345 1 -1475 16 -1496 31 -44 68 -51 284
-51 213 0 246 6 285 50 20 22 20 35 18 1496 l-3 1474 129 0 c163 0 161 -2 161
125 0 127 2 125 -161 125 l-129 0 0 340 0 340 281 0 281 0 29 30 30 30 -3 229
c-3 209 -5 231 -22 250 l-19 21 -878 0 -878 0 -20 -26z"/>
<path d="M564 4255 c-4 -8 -4 -22 0 -30 5 -13 418 -15 3663 -13 l3658 3 3 28
3 27 -3661 0 c-3245 0 -3661 -2 -3666 -15z"/>
<path d="M1663 3988 c-16 -20 -423 -899 -423 -913 0 -19 24 -25 98 -25 103 0
110 4 143 76 l28 64 180 0 180 0 27 -60 c15 -34 35 -65 45 -70 29 -16 175 -12
189 4 9 12 -25 94 -180 428 -106 227 -203 434 -216 461 -25 48 -51 61 -71 35z
m70 -492 c20 -47 40 -92 43 -100 5 -14 -6 -16 -85 -16 -50 0 -91 3 -91 8 0 13
83 192 89 192 3 0 23 -38 44 -84z"/>
<path d="M4963 3988 c-16 -20 -423 -898 -423 -913 0 -19 24 -25 98 -25 102 0
109 4 142 76 l29 64 180 0 180 0 27 -60 c15 -34 35 -65 45 -70 29 -16 175 -12
188 4 18 22 -405 930 -435 934 -11 2 -25 -3 -31 -10z m74 -504 c23 -52 43 -97
43 -100 0 -2 -40 -4 -90 -4 -49 0 -90 3 -90 8 0 13 85 200 89 196 2 -2 24 -47
48 -100z"/>
<path d="M6397 3993 c-4 -3 -7 -214 -7 -469 0 -412 2 -463 16 -468 20 -8 158
-8 178 0 14 5 16 38 16 263 l0 256 268 -268 c223 -223 273 -268 293 -265 l24
3 3 467 2 468 -22 5 c-13 3 -59 5 -103 3 l-80 -3 -3 -242 c-1 -134 -5 -243 -8
-243 -3 0 -122 113 -265 250 -251 241 -287 269 -312 243z"/>
<path d="M3103 3983 c-18 -7 -19 -903 -1 -921 14 -14 504 -17 526 -4 9 6 12
33 10 98 l-3 89 -167 3 -168 2 0 364 c0 323 -2 365 -16 370 -19 7 -163 7 -181
-1z"/>
<path d="M564 2795 c-4 -8 -4 -22 0 -30 5 -13 418 -15 3663 -13 l3658 3 3 28
3 27 -3661 0 c-3245 0 -3661 -2 -3666 -15z"/>
<path d="M6169 2419 c-20 -20 -20 -22 -17 -993 2 -807 5 -976 17 -989 12 -15
40 -17 212 -17 193 0 198 1 213 22 14 20 16 89 16 553 l0 530 568 -568 567
-567 46 0 c86 0 79 -89 79 1006 0 861 -2 972 -16 992 -15 21 -20 22 -213 22
-172 0 -200 -2 -212 -17 -11 -13 -15 -114 -19 -526 l-5 -509 -562 541 -562
541 -46 0 c-32 0 -51 -6 -66 -21z"/>
<path d="M577 2392 c-15 -16 -17 -45 -17 -194 0 -157 2 -177 18 -191 16 -15
47 -17 230 -17 l212 0 0 -230 0 -230 -83 0 c-51 0 -88 -5 -95 -12 -16 -16 -16
-160 0 -176 7 -7 44 -12 95 -12 l83 0 0 -438 c0 -413 1 -440 18 -455 16 -15
46 -17 213 -17 138 0 198 3 207 12 9 9 12 124 12 455 l0 443 83 0 c51 0 88 5
95 12 7 7 12 42 12 88 0 46 -5 81 -12 88 -7 7 -44 12 -95 12 l-83 0 0 230 0
230 213 0 c168 0 217 3 233 14 18 13 19 28 19 194 0 137 -3 183 -14 195 -12
16 -72 17 -671 17 -624 0 -658 -1 -673 -18z"/>
<path d="M2197 2392 c-15 -17 -17 -77 -17 -651 0 -695 1 -713 62 -859 122
-294 421 -492 743 -492 331 0 633 196 757 492 57 135 58 146 58 850 0 575 -2
648 -16 662 -24 24 -405 24 -425 -1 -11 -13 -15 -133 -19 -652 l-5 -636 -29
-59 c-60 -122 -162 -188 -301 -194 -64 -3 -92 1 -137 18 -80 30 -157 102 -194
182 l-29 63 -3 630 c-2 563 -4 631 -19 647 -14 16 -37 18 -213 18 -178 0 -198
-2 -213 -18z"/>
<path d="M4276 2394 c-14 -14 -16 -117 -16 -983 0 -739 3 -970 12 -979 9 -9
69 -12 209 -12 193 0 198 1 213 22 14 19 16 73 16 386 l0 363 98 -3 97 -3 185
-366 c102 -202 191 -374 199 -383 12 -14 43 -16 230 -16 231 0 241 2 241 49 0
14 -87 185 -192 380 -106 195 -194 358 -196 362 -2 5 13 15 33 24 124 51 262
181 321 300 170 345 -36 770 -416 859 -99 24 -1011 23 -1034 0z m939 -413
c153 -71 168 -286 26 -386 l-43 -30 -244 -3 -244 -3 0 221 0 220 233 0 c204 0
237 -3 272 -19z"/>
<path d="M8376 2394 c-14 -14 -16 -117 -16 -983 0 -739 3 -970 12 -979 9 -9
163 -12 629 -12 l618 0 15 22 c13 18 16 55 16 190 0 155 -2 170 -20 188 -19
19 -33 20 -420 20 l-400 0 0 190 0 190 334 0 c335 0 335 0 350 22 13 18 16 55
16 190 0 155 -2 170 -20 188 -19 19 -33 20 -350 20 l-330 0 0 175 0 175 400 0
c387 0 401 1 420 20 18 18 20 33 20 188 0 135 -3 172 -16 190 l-15 22 -614 0
c-544 0 -615 -2 -629 -16z"/>
<path d="M10046 2394 c-14 -14 -16 -117 -16 -983 0 -739 3 -970 12 -979 9 -9
69 -12 209 -12 193 0 198 1 213 22 14 19 16 73 16 386 l0 363 98 -3 97 -3 185
-366 c102 -202 191 -374 199 -383 12 -14 42 -16 230 -16 231 0 241 2 241 49 0
14 -87 185 -192 380 -106 195 -194 358 -196 362 -2 5 13 15 33 24 124 51 262
181 321 300 170 345 -36 770 -416 859 -99 24 -1011 23 -1034 0z m939 -413
c153 -71 168 -286 26 -386 l-43 -30 -244 -3 -244 -3 0 221 0 220 233 0 c204 0
237 -3 272 -19z"/>
</g>
</svg>
