<?xml version="1.0" encoding="utf-8"?>
<!-- Generator: Adobe Illustrator 24.1.2, SVG Export Plug-In . SVG Version: 6.00 Build 0)  -->
<svg version="1.1" id="Layer_1" xmlns="http://www.w3.org/2000/svg" xmlns:xlink="http://www.w3.org/1999/xlink" x="0px" y="0px"
	 viewBox="0 0 504.4 118" style="enable-background:new 0 0 504.4 118;" xml:space="preserve">
<style type="text/css">
	.st0{fill:#FFAB00;}
	.st1{fill:#2979FF;}
	.st2{fill:#F80046;}
	.st3{fill:#00CC3E;}
	.st4{fill:#1C272C;}
</style>
<g>
	<path class="st0" d="M15.8,44.5h-1.4H13c-7.2,0-13,5.8-13,13v13v13v13c0,7.2,5.8,13,13,13h1.4h1.4c7.2,0,13-5.8,13-13v-13v-13v-13
		C28.8,50.3,23,44.5,15.8,44.5z"/>
	<path class="st1" d="M87.8,8.6L87.8,8.6h-13h-13h-13l0,0c-7.2,0-13,5.8-13,13V23v1.4c0,7.2,5.8,13,13,13l0,0h13h13h13l0,0
		c7.2,0,13-5.8,13-13V23v-1.4C100.8,14.4,95,8.6,87.8,8.6z"/>
	<path class="st2" d="M15.9,8.6h-1.4h-1.4c-7.2,0-13,5.8-13,13V23v1.4c0,7.2,5.8,13,13,13h1.4h1.4c7.2,0,13-5.8,13-13V23v-1.4
		C28.9,14.4,23.1,8.6,15.9,8.6z"/>
	<path class="st3" d="M87.8,44.5H48.9c-7.2,0-13,5.8-13,13v38.9c0,7.2,5.8,13,13,13h38.9c7.2,0,13-5.8,13-13V57.5
		C100.7,50.3,94.9,44.5,87.8,44.5z"/>
	<g>
		<path class="st4" d="M158.4,52.7c-8-1.9-13.8-3.3-13.8-8c0-4.1,3.5-7,10.1-7c5.5,0,11.4,1.6,16.5,5c2,1.3,4.6,0.9,6-1l2.9-3.8
			c1.5-2,1.1-4.9-1-6.3c-6.3-4.4-14.2-6.7-23.3-6.7c-16.3,0-26.2,9.3-26.2,20.8c0,15.4,14.5,18.5,25.8,21.1c8,1.9,14,3.6,14,8.8
			c0,3.9-3.9,7.8-12,7.8c-7.5,0-13.9-2.7-18.6-6.3c-2-1.5-4.8-1.1-6.2,0.9l-2.9,4c-1.4,1.9-1,4.6,0.8,6.1c6.3,5,14.9,8.2,26.1,8.2
			c18.6,0,27.6-9.5,27.6-22.2C184.2,58.7,169.7,55.3,158.4,52.7z"/>
		<path class="st4" d="M219.6,43.7c-8.2,0-14.4,3.9-17.6,7.8V30.3c0-2.4-2-4.4-4.4-4.4h-4.3c-2.4,0-4.4,2-4.4,4.4v60.2
			c0,2.4,2,4.4,4.4,4.4h4.3c2.4,0,4.4-2,4.4-4.4V61.3c2.3-3,6.3-5.9,11.4-5.9c5.7,0,9.3,2.2,9.3,9.1v26c0,2.4,2,4.4,4.4,4.4h4.3
			c2.4,0,4.4-2,4.4-4.4V59.4C235.9,49.7,230.6,43.7,219.6,43.7z"/>
		<path class="st4" d="M320.8,43.7c-15.2,0-25.9,11.7-25.9,26.2c0,16,11.5,26.3,26.7,26.3c6.7,0,13.4-1.8,18.4-5.2
			c1.3-0.9,1.6-2.7,0.7-4l-2.5-3.7c-0.9-1.3-2.6-1.6-4-0.8c-3.2,2-7.4,3.2-11.1,3.2c-8.5,0-13.6-5.3-14.4-11.6H343
			c1.6,0,2.9-1.3,2.9-2.9C345.9,54.9,335.7,43.7,320.8,43.7z M308.5,65.2c0.6-5,4.1-11.1,12.3-11.1c8.7,0,12,6.3,12.3,11.1H308.5z"
			/>
		<path class="st4" d="M379.3,85.6c-0.3-1.2-1.6-1.9-2.8-1.5c-0.8,0.2-1.6,0.4-2.5,0.4c-2.9,0-4.6-2.4-4.6-5.5V56.4h5.7
			c2.4,0,4.4-2,4.4-4.4v-2.6c0-2.4-2-4.4-4.4-4.4h-5.7v-9.2c0-2.4-2-4.4-4.4-4.4h-4.4c-2.4,0-4.4,2-4.4,4.4V45h-3.9
			c-2.4,0-4.4,2-4.4,4.4V52c0,2.4,2,4.4,4.4,4.4h3.9v26.1c0,8.9,5,13.7,14.2,13.7c4.4,0,7.5-0.9,9.6-2.2c0.9-0.5,1.3-1.5,1-2.5
			L379.3,85.6z"/>
		<path class="st4" d="M429.8,44.9h-4.4c-2.4,0-4.4,2-4.4,4.4v2c-4-5.1-9.4-7.7-15.4-7.7c-12.6,0-22,9.1-22,25.5
			c0,16.7,9.5,25.5,22,25.5c6.1,0,11.5-2.9,15.4-7.9v5.1c0,9.8-7.5,12.6-13.8,12.6c-5.4,0-10-1.3-13.8-4.4c-1-0.9-2.6-0.6-3.3,0.5
			l-3.4,5.6c-0.6,1-0.4,2.2,0.5,2.9c5.9,4.5,12.1,6.2,20,6.2c12.3,0,27-4.7,27-23.7V49.3C434.2,46.9,432.3,44.9,429.8,44.9z
			 M409.7,82.9c-7.5,0-12.6-5.2-12.6-13.8s5.2-13.8,12.6-13.8c8.3,0,12.6,6.2,12.6,13.8C422.3,78.4,416.5,82.9,409.7,82.9z"/>
		<path class="st4" d="M465.6,43.7c-16.5,0-26.4,12-26.4,26.2c0,14.3,9.9,26.3,26.4,26.3c16.6,0,26.5-12,26.5-26.3
			C492.1,55.7,482.2,43.7,465.6,43.7z M465.6,84.5c-8.2,0-12.7-6.7-12.7-14.6c0-7.8,4.6-14.5,12.7-14.5c8.2,0,12.8,6.7,12.8,14.5
			S473.8,84.5,465.6,84.5z"/>
		<path class="st4" d="M266.9,43.7c-15.2,0-25.9,11.7-25.9,26.2c0,16,11.5,26.3,26.7,26.3c6.7,0,13.4-1.8,18.4-5.2
			c1.3-0.9,1.6-2.7,0.7-4l-2.5-3.7c-0.9-1.3-2.6-1.6-4-0.8c-3.2,2-7.4,3.2-11.1,3.2c-8.5,0-13.6-5.3-14.4-11.6h34.3
			c1.6,0,2.9-1.3,2.9-2.9C291.9,54.9,281.8,43.7,266.9,43.7z M254.5,65.2c0.6-5,4.1-11.1,12.3-11.1c8.7,0,12,6.3,12.3,11.1H254.5z"
			/>
	</g>
</g>
</svg>
